<svg xmlns="http://www.w3.org/2000/svg" viewBox="0 0 23.33 36.93"><defs><style>.cls-1{fill:#5d71dd;fill-rule:evenodd;}</style></defs><g id="Слой_2" data-name="Слой 2"><g id="Слой_1-2" data-name="Слой 1"><path class="cls-1" d="M5.83,3.33a2.5,2.5,0,0,0-2.5,2.5V31.09a2.5,2.5,0,0,0,2.5,2.5H17.5a2.5,2.5,0,0,0,2.5-2.5V5.83a2.5,2.5,0,0,0-2.5-2.5h-.14l-.4,1a1.67,1.67,0,0,1-1.54,1H7.92a1.66,1.66,0,0,1-1.54-1L6,3.33ZM0,5.83A5.83,5.83,0,0,1,5.83,0H17.5a5.83,5.83,0,0,1,5.83,5.83V31.09a5.83,5.83,0,0,1-5.83,5.84H5.83A5.83,5.83,0,0,1,0,31.09Z"/></g></g></svg>