<svg width="20" height="21" viewBox="0 0 20 21" fill="none" xmlns="http://www.w3.org/2000/svg">
<path fill-rule="evenodd" clip-rule="evenodd" d="M10.7842 2.17165C10.2708 2.03263 9.7296 2.03263 9.21616 2.17165C8.68161 2.31638 8.16322 2.69556 6.68492 3.84535L4.08492 5.86757C3.13347 6.60758 2.81404 6.86704 2.58824 7.17233C2.37124 7.46571 2.2096 7.79622 2.11124 8.14762C2.00888 8.51329 2.0002 8.92473 2.0002 10.1301V16.7499C2.0002 17.5205 2.01105 17.6841 2.04326 17.7902C2.14021 18.1098 2.39031 18.3599 2.70991 18.4569C2.81608 18.4891 2.97966 18.4999 3.7502 18.4999H4.3752C4.50314 18.4999 4.53092 18.4996 4.54926 18.4987C5.06297 18.4735 5.47375 18.0627 5.49899 17.549C5.49989 17.5307 5.5002 17.5029 5.5002 17.3749V14.4999C5.5002 12.0147 7.51491 9.99994 10.0002 9.99994C12.4855 9.99994 14.5002 12.0147 14.5002 14.4999V17.3749C14.5002 17.5029 14.5005 17.5307 14.5014 17.549C14.5266 18.0627 14.9374 18.4735 15.4511 18.4987C15.4695 18.4996 15.4973 18.4999 15.6252 18.4999H16.2502C17.0207 18.4999 17.1843 18.4891 17.2905 18.4569C17.6101 18.3599 17.8602 18.1098 17.9571 17.7902C17.9893 17.6841 18.0002 17.5205 18.0002 16.7499V10.1301C18.0002 8.92473 17.9915 8.51329 17.8892 8.14762C17.7908 7.79622 17.6291 7.46571 17.4122 7.17233C17.1864 6.86704 16.8669 6.60758 15.9155 5.86757L13.3155 3.84535C11.8372 2.69556 11.3188 2.31638 10.7842 2.17165ZM8.69346 0.241158C9.54921 0.00945775 10.4512 0.00945775 11.3069 0.241158C12.2802 0.504683 13.1342 1.16957 14.3732 2.1342C14.4291 2.17774 14.4858 2.22189 14.5434 2.26664L17.1434 4.28887C17.1793 4.31682 17.2148 4.34438 17.2498 4.37158C18.0541 4.99674 18.6105 5.42921 19.0201 5.98303C19.3818 6.472 19.6512 7.02285 19.8151 7.60852C20.0008 8.27187 20.0006 8.97661 20.0002 9.99533C20.0002 10.0396 20.0002 10.0845 20.0002 10.1301V16.7499C20.0002 16.7923 20.0002 16.8342 20.0003 16.8758C20.001 17.447 20.0016 17.9404 19.871 18.3708C19.5802 19.3296 18.8299 20.0799 17.871 20.3708C17.4407 20.5013 16.9473 20.5007 16.376 20.5C16.3345 20.5 16.2926 20.4999 16.2502 20.4999L15.6042 20.4999C15.5091 20.5 15.4273 20.5 15.353 20.4963C13.8119 20.4206 12.5795 19.1883 12.5038 17.6471C12.5002 17.5728 12.5002 17.491 12.5002 17.3959L12.5002 14.4999C12.5002 13.1192 11.3809 11.9999 10.0002 11.9999C8.61948 11.9999 7.5002 13.1192 7.5002 14.4999L7.5002 17.3959C7.50022 17.4911 7.50023 17.5728 7.49658 17.6471C7.42087 19.1883 6.18851 20.4206 4.6474 20.4963C4.57306 20.5 4.4913 20.5 4.39614 20.4999L3.7502 20.4999C3.70784 20.4999 3.6659 20.5 3.62437 20.5C3.0531 20.5007 2.55969 20.5013 2.12934 20.3708C1.17054 20.0799 0.420225 19.3296 0.129375 18.3708C-0.00116907 17.9404 -0.000582684 17.447 9.63322e-05 16.8758C0.000145685 16.8342 0.000195514 16.7923 0.000195514 16.7499V10.1301C0.000195514 10.0845 0.000180375 10.0396 0.000165474 9.99532C-0.000176896 8.9766 -0.00041388 8.27187 0.185264 7.60852C0.349199 7.02285 0.61861 6.472 0.980263 5.98303C1.38988 5.42921 1.94631 4.99673 2.75065 4.37157C2.78564 4.34438 2.8211 4.31682 2.85703 4.28887L5.45704 2.26664C5.51458 2.22189 5.57128 2.17774 5.62721 2.1342C6.86619 1.16957 7.72017 0.504682 8.69346 0.241158Z" fill="#5d71dd"/>
</svg>
