<svg width="21" height="21" viewBox="0 0 21 21" fill="none" xmlns="http://www.w3.org/2000/svg">
<path fill-rule="evenodd" clip-rule="evenodd" d="M18.7647 16.7597V12.808C18.7647 12.27 19.2008 11.8339 19.7388 11.8339C20.2768 11.8339 20.7129 12.27 20.7129 12.808V16.7597C20.7129 19.1015 18.8147 20.9999 16.473 20.9999L4.23987 20.9999C1.89826 20.9999 -1.02355e-07 19.1015 0 16.7597L5.34728e-07 4.52565C6.37083e-07 2.18386 1.89826 0.285468 4.23988 0.285474L8.19129 0.285485C8.72927 0.285487 9.16538 0.721634 9.16538 1.25965C9.16538 1.79766 8.72926 2.23381 8.19129 2.23381L4.23988 2.23379C2.97421 2.23379 1.94818 3.25989 1.94818 4.52565L1.94818 16.7597C1.94818 18.0255 2.9742 19.0516 4.23987 19.0516H16.473C17.7387 19.0516 18.7647 18.0255 18.7647 16.7597Z" fill="#5d71dd"/>
<path fill-rule="evenodd" clip-rule="evenodd" d="M20.4291 0.570746C20.8095 0.951179 20.8095 1.56798 20.4291 1.94842L9.6033 12.775C9.2229 13.1554 8.60614 13.1554 8.22573 12.775C7.84533 12.3946 7.84533 11.7778 8.22573 11.3973L19.0515 0.570745C19.4319 0.190312 20.0487 0.190312 20.4291 0.570746Z" fill="#5d71dd"/>
<path fill-rule="evenodd" clip-rule="evenodd" d="M19.7419 0.29573C20.2792 0.296714 20.7142 0.732571 20.7142 1.26989L20.7142 7.03344C20.7142 7.57145 20.2781 8.0076 19.7401 8.0076C19.2022 8.0076 18.766 7.57145 18.766 7.03344L18.766 2.24227L13.9646 2.23347C13.4266 2.23249 12.9913 1.79555 12.9923 1.25753C12.9932 0.71952 13.4302 0.284173 13.9681 0.285158L19.7419 0.29573Z" fill="#5d71dd"/>
</svg>
